<?xml version="1.0" standalone="no"?>
<!DOCTYPE svg PUBLIC "-//W3C//DTD SVG 20010904//EN"
 "http://www.w3.org/TR/2001/REC-SVG-20010904/DTD/svg10.dtd">
<svg version="1.0" xmlns="http://www.w3.org/2000/svg"
 width="200.000000pt" height="200.000000pt" viewBox="0 0 200.000000 200.000000"
 preserveAspectRatio="xMidYMid meet">

<g transform="translate(0.000000,200.000000) scale(0.100000,-0.100000)"
fill="#000000" stroke="none">
<path d="M319 1727 c-64 -42 -69 -66 -69 -310 0 -236 4 -261 54 -307 l28 -25
241 -3 c228 -2 244 -1 275 18 18 11 41 34 52 52 19 31 20 47 18 275 l-3 241
-25 27 c-49 53 -61 55 -308 55 -221 0 -230 -1 -263 -23z"/>
<path d="M1155 1731 c-71 -44 -70 -38 -73 -305 -2 -227 -1 -243 18 -274 11
-18 34 -41 52 -52 31 -19 47 -20 275 -18 l241 3 28 25 c50 46 54 71 54 307 0
244 -5 268 -69 310 -33 22 -41 23 -265 23 -207 0 -234 -2 -261 -19z"/>
<path d="M335 910 c-27 -11 -61 -49 -74 -83 -7 -17 -11 -116 -11 -245 0 -243
5 -267 69 -309 33 -22 42 -23 263 -23 247 0 259 2 308 55 l25 27 3 241 c2 228
1 244 -18 275 -11 18 -34 41 -52 52 -31 18 -50 20 -263 19 -126 0 -239 -4
-250 -9z"/>
<path d="M1152 900 c-18 -11 -41 -34 -52 -52 -19 -31 -20 -47 -18 -275 l3
-241 25 -27 c49 -53 61 -55 308 -55 221 0 230 1 263 23 64 42 69 65 69 312 0
247 -5 270 -69 312 -33 22 -41 23 -265 23 -213 0 -234 -2 -264 -20z"/>
</g>
</svg>
