<?xml version="1.0" encoding="UTF-8"?>
<svg version="1.1" xmlns="http://www.w3.org/2000/svg" width="128" height="128">
<path d="M0 0 C2.875 0.9375 2.875 0.9375 4.875 3.9375 C4.875 7.8975 4.875 11.8575 4.875 15.9375 C22.035 15.9375 39.195 15.9375 56.875 15.9375 C57.535 14.6175 58.195 13.2975 58.875 11.9375 C60.94282591 9.86967409 65.33098775 10.74920008 68.1796875 10.734375 C69.01460724 10.72867493 69.84952698 10.72297485 70.70974731 10.71710205 C72.48015062 10.70763742 74.25057167 10.70111228 76.02099609 10.69726562 C78.73175798 10.68756528 81.4417602 10.65655855 84.15234375 10.625 C85.86978715 10.61846972 87.58723599 10.61321935 89.3046875 10.609375 C90.1172702 10.5970282 90.92985291 10.5846814 91.76705933 10.57196045 C97.42542455 10.59438293 97.42542455 10.59438293 99.58840942 12.24517822 C101.68046337 14.99696929 101.30715927 18.06293812 101.25 21.375 C101.26160156 23.35306641 101.26160156 23.35306641 101.2734375 25.37109375 C100.84483054 29.2075462 100.69928847 30.3922724 97.875 32.9375 C94.91575107 33.33014311 92.33354873 33.47481404 89.375 33.43359375 C88.54291016 33.43504898 87.71082031 33.43650421 86.85351562 33.43800354 C85.09501645 33.43634423 83.33650281 33.42477923 81.578125 33.40405273 C78.88478988 33.37510522 76.19342361 33.38344057 73.5 33.39648438 C71.79165709 33.3902467 70.0833204 33.38185552 68.375 33.37109375 C67.56869141 33.37402939 66.76238281 33.37696503 65.93164062 33.37998962 C60.3058493 33.28495631 60.3058493 33.28495631 58.13867188 31.5372467 C56.875 29.9375 56.875 29.9375 56.875 27.9375 C39.715 27.9375 22.555 27.9375 4.875 27.9375 C4.875 36.5175 4.875 45.0975 4.875 53.9375 C22.035 53.9375 39.195 53.9375 56.875 53.9375 C57.535 52.2875 58.195 50.6375 58.875 48.9375 C62.00864979 47.37067511 65.36233407 47.73247656 68.8046875 47.69921875 C69.59142853 47.691147 70.37816956 47.68307526 71.18875122 47.67475891 C72.85481564 47.66092096 74.52090839 47.6501975 76.18701172 47.64233398 C78.733294 47.62511299 81.27828037 47.58122583 83.82421875 47.53710938 C85.44269878 47.52698298 87.06118985 47.51846671 88.6796875 47.51171875 C89.4402243 47.49421066 90.20076111 47.47670258 90.98434448 47.45866394 C94.47887553 47.47298276 96.49512528 47.66159414 99.35839844 49.74121094 C101.601163 52.98910373 101.33380895 55.60288396 101.25 59.5 C101.24871094 60.17224609 101.24742188 60.84449219 101.24609375 61.53710938 C101.18075637 65.19237284 100.94931147 66.8260328 98.875 69.9375 C95.82424916 70.203987 92.97873821 70.28507146 89.9296875 70.23046875 C88.60216965 70.22410149 88.60216965 70.22410149 87.24783325 70.21760559 C84.41491555 70.20078259 81.58270348 70.16312425 78.75 70.125 C76.83204151 70.10995782 74.91407189 70.09626861 72.99609375 70.08398438 C68.28878969 70.05086727 63.58201456 69.99906055 58.875 69.9375 C58.215 68.2875 57.555 66.6375 56.875 64.9375 C39.715 64.9375 22.555 64.9375 4.875 64.9375 C4.875 73.5175 4.875 82.0975 4.875 90.9375 C22.035 90.9375 39.195 90.9375 56.875 90.9375 C57.535 89.2875 58.195 87.6375 58.875 85.9375 C64.53496416 85.86347632 70.19464811 85.80895827 75.85498047 85.77270508 C77.78146267 85.75759605 79.70791035 85.73710786 81.63427734 85.71118164 C84.39950057 85.67489075 87.16427004 85.65779521 89.9296875 85.64453125 C91.2266304 85.62130547 91.2266304 85.62130547 92.54977417 85.59761047 C94.97607422 85.59692383 94.97607422 85.59692383 98.875 85.9375 C101.2698515 89.52977724 101.24203237 92.2198807 101.25 96.375 C101.27835937 97.69371094 101.30671875 99.01242188 101.3359375 100.37109375 C100.875 103.9375 100.875 103.9375 99.35400391 106.12719727 C95.92892166 108.62837757 92.83367682 108.5125878 88.75 108.46875 C87.5741333 108.47449036 87.5741333 108.47449036 86.37451172 108.48034668 C84.72036451 108.48306353 83.06617417 108.4757181 81.41210938 108.45898438 C78.88313838 108.43756892 76.35700786 108.45879097 73.828125 108.484375 C72.21874374 108.48173168 70.60936425 108.47660661 69 108.46875 C67.86860596 108.48089539 67.86860596 108.48089539 66.71435547 108.49328613 C63.17044657 108.43013176 61.22491559 108.20375197 58.3671875 106.02929688 C56.875 103.9375 56.875 103.9375 56.875 101.9375 C56.1027005 101.94416183 55.330401 101.95082367 54.53469849 101.95768738 C47.26556534 102.01773497 39.996552 102.06344178 32.72723579 102.09293652 C28.98976204 102.10860972 25.25249277 102.12987761 21.51513672 102.16381836 C17.9100836 102.19635367 14.30522748 102.21434054 10.70003891 102.22213173 C9.32286349 102.22768581 7.94569915 102.23853135 6.56860733 102.25469017 C4.64366369 102.27638435 2.71852288 102.27772471 0.79345703 102.27807617 C-0.30352509 102.28473801 -1.4005072 102.29139984 -2.5307312 102.29826355 C-3.3868399 102.17921158 -4.24294861 102.06015961 -5.125 101.9375 C-7.76709761 97.97435358 -7.42031423 94.54108833 -7.41552734 89.93969727 C-7.42224457 89.01909515 -7.42896179 88.09849304 -7.43588257 87.1499939 C-7.45490902 84.1012434 -7.45878899 81.05271245 -7.4609375 78.00390625 C-7.46736175 75.88785206 -7.47408982 73.77179876 -7.48110962 71.65574646 C-7.4930937 67.21798645 -7.49678923 62.78030435 -7.49560547 58.3425293 C-7.49540212 52.65147221 -7.52271644 46.96091358 -7.55714989 41.26997471 C-7.57936802 36.89912107 -7.58344459 32.52838839 -7.58238602 28.15748405 C-7.58474918 26.05908425 -7.59361275 23.96068146 -7.60905075 21.86233711 C-7.62860951 18.92943342 -7.62291264 15.99761784 -7.61083984 13.06469727 C-7.62207886 12.19547134 -7.63331787 11.32624542 -7.64489746 10.43067932 C-7.60440114 6.56636787 -7.57917852 4.57465739 -5.28994751 1.36314392 C-3.125 -0.0625 -3.125 -0.0625 0 0 Z " fill="#A9A9A9" transform="translate(17.125,10.0625)"/>
</svg>
